<?xml version="1.0" encoding="UTF-8" standalone="no"?>
<!-- Created with Inkscape (http://www.inkscape.org/) -->

<svg
   width="48"
   height="48"
   viewBox="0 0 12.7 12.7"
   version="1.1"
   id="svg5"
   xml:space="preserve"
   xmlns="http://www.w3.org/2000/svg"
   xmlns:svg="http://www.w3.org/2000/svg"><defs
     id="defs2" /><g
     id="layer1"><g
       id="g179"
       transform="matrix(0.44861497,0,0,0.44861497,12.156875,0.64887631)"><path
         style="fill:#feb303;stroke-width:0.264583"
         d="m -23.370671,25.483685 c -1.565827,-0.971788 -1.554007,-0.874122 -1.552102,-12.824508 0.0022,-14.1822881 -0.543373,-13.16415976 7.062837,-13.17896849 5.466704,-0.0106442 6.841686,0.20189958 9.5163989,1.47103284 3.770794,1.78921625 6.584516,5.61076405 7.2395661,9.83265065 1.00352224,6.467873 -3.2514275,13.026047 -9.511564,14.660222 -2.489718,0.649925 -11.725509,0.67858 -12.755136,0.03957 z m 13.079303,-2.52949 C -3.6060006,19.390932 -2.0240966,10.455374 -7.1127827,4.9996345 -8.722984,3.2732859 -9.9343867,2.5052589 -11.916231,1.9542569 c -3.559768,-0.98970357 -6.501562,0.6269017 -6.491107,3.5670602 0.0073,2.0596255 0.279717,2.4268558 5.619165,7.5755579 2.738571,2.640738 3.1699449,3.292046 3.3854295,5.111496 0.1872721,1.581208 -0.3058531,2.801562 -1.7769605,4.397526 -0.611714,0.663633 -1.024413,1.206603 -0.917108,1.206603 0.107304,0 0.919754,-0.386238 1.805444,-0.858305 z m -7.477818,-1.513772 c 0.544836,0.431517 1.057492,0.784577 1.139236,0.784577 0.08175,0 -0.02468,-0.49122 -0.236512,-1.091599 -0.532117,-1.508181 -0.50886,-1.600155 0.593694,-2.347984 l 0.975216,-0.661459 -1.286452,-0.132291 c -1.273734,-0.130985 -1.290932,-0.14537 -1.739641,-1.455209 l -0.45319,-1.322916 -0.293604,0.739272 c -0.161482,0.406601 -0.36553,1.025853 -0.453441,1.376119 -0.138913,0.553474 -0.335845,0.647197 -1.504311,0.715934 l -1.344473,0.07909 1.085692,0.749983 1.085691,0.749983 -0.377243,1.069221 c -0.557173,1.579197 -0.48469,1.656651 0.720742,0.770167 l 1.097985,-0.807468 z"
         id="path183" /></g></g></svg>
